<?xml version="1.0" encoding="UTF-8"?>
<svg id="Layer_1" data-name="Layer 1" xmlns="http://www.w3.org/2000/svg" viewBox="0 0 776.7 776.7">
  <defs>
    <style>
      .cls-1 {
        fill: #f4f4f4;
        stroke-width: 0px;
      }
    </style>
  </defs>
  <path class="cls-1" d="M546.63,181.62c.02-7.97-1.76-7.47-9.51-9.89-11.35-3.55-20.25-6.38-29.74-9.11-8.75-2.52-11.37-4.32-11.36,2.98.02,57.12.07,128.56.11,185.7.02,8.29,2.45,10.48,11.57,10.51,8.87.03,17.74-.02,26.61,0,10.13.02,12.18-1.78,12.18-11.09.03-28.25.02-56.49.02-84.76h-.03c0-10.92-.02-21.85,0-32.77.03-17.53.08-34.04.15-51.57Z"/>
  <path class="cls-1" d="M733.5,133.15c.02-7.9-3-11.09-10.6-13.35-108.32-32.29-216.52-64.94-324.87-97.13-5.86-1.74-13.27-1.72-19.13.02C270.93,54.8,163.12,87.43,55.13,119.49c-9.36,2.78-11.8,7.03-11.72,15.82.4,45.89.19,91.79.19,137.68h-.11c0,32.38.97,64.78-.18,97.12-3.6,101.25,35.24,185.32,111.09,254.71,66.38,60.73,145.71,101.55,229.48,135.37,2.68,1.08,6.69,1.04,9.39-.05,77.19-31.06,150.64-68.3,213.92-121.6,78.81-66.39,126.23-147.6,126.42-250.31.15-85.03-.27-170.06-.1-255.09ZM364.76,312.41c.03,7.92-2.41,13.58-9.31,18.47-24.4,17.38-48.43,35.23-72.66,52.81-6.3,4.58-6.28,6.88.23,11.61,25.12,18.17,50.08,36.52,75.33,54.56,4.39,3.13,6.14,6.81,6.17,11.57.1,10.5.15,21,.15,31.49-.02,66.2-.07,132.4-.07,198.58,0,2.27,0,4.53.02,6.8.03,4.35-4.35,7.28-8.2,5.48-20.84-9.73-41.27-20.14-61.14-31.47-2.96-1.69-5.91-3.4-8.84-5.13-1.81-1.07-2.92-3.06-2.92-5.2.13-61.58.17-123.19.04-184.77-.05-24.97,4.4-19.09-19.41-36.49-7.5-5.45-14.91-11-22.54-16.3-1.51-1.04-4.32-2.14-5.53-1.51-1.49.76-2.59,3.26-2.7,5.08-.29,4.31.16,8.65.16,12.97.03,59.8.06,119.59-.03,179.39,0,4.93-5.5,7.75-9.33,4.79-15.33-11.89-30.11-24.7-44.23-38.6-.49-.49-.98-.98-1.47-1.46-8.85-8.8-17.14-17.86-24.84-27.15-.91-1.1-1.4-2.5-1.4-3.94,0-123.95,0-215.13.05-339.5,0-6.56-2.09-11.76-8.1-15.95-13.71-9.55-31.71-22.74-46.88-33.79-3.96-2.88-2.95-9.17,1.7-10.59,26.35-8.05,91.57-28,125.9-38.87,5.68-1.8,8.66,1.95,8.64,8.07-.13,70.93-.02,150.67.03,221.6,0,2.07-.11,4.14.1,6.19.52,4.81,3.44,6.23,7.63,3.26,12.67-8.95,25.37-17.88,37.43-27.52,2.86-2.29,4.53-7.25,4.57-10.99.14-27.41.18-46.37.19-65.37,0-12.47-.01-26.06,0-43.01,0-6.76,0-14.01,0-21.99,0-1.89.02-3.77.06-5.66.05-21.42.13-52.18.19-76.79,0-2.63,1.68-4.93,4.13-5.69,23.11-7.16,46.23-14.31,69.36-21.44,3.74-1.15,7.5,1.73,7.49,5.74-.05,23.06-.09,51.34-.12,80.58.1.56.17,1.18.17,1.88-.18,60.61-.23,87.66,0,148.27ZM679.24,166.87c-16.56,11.71-42.09,29.68-45.62,33.44-3.18,3.38-5.6,8.65-5.68,13.11-.47,28.87-.23,24.17-.23,53.03,0,95.27,0,190.54-.02,285.81,0,1.5-.51,2.96-1.45,4.11-7.81,9.53-16.19,18.75-25.11,27.71-5.27,5.32-10.75,10.53-16.4,15.65-9.39,8.5-19.02,16.58-28.89,24.27-3.88,3.03-9.47.15-9.46-4.86,0-4.06.03-8.11.04-12.17.02-59.39.05-118.77.08-178.18.02-10.7-1.67-12.33-12.83-12.35-8.87,0-17.74-.03-26.61,0-8.71.03-10.92,2.15-10.92,10.33,0,0,0,205.55-.01,234.63,0,2.11-1.09,4.06-2.87,5.12-3.01,1.79-6.03,3.56-9.06,5.3-19.64,11.26-39.82,21.59-60.4,31.22-4.13,1.93-8.83-1.2-8.82-5.87,0-3.84,0-7.68,0-11.51.02-176.93.03-320.29.05-497.22,0-6.47.22-77.08.08-102.98-.02-4.41,4.07-7.62,8.21-6.43l.17.05c9.57,2.74,21.05,6.3,30.61,9.25,56.57,17.49,183.72,55.66,223.43,67.57,4.85,1.46,5.88,8.05,1.71,10.99Z"/>
</svg>