<?xml version="1.0" encoding="UTF-8"?>
<svg id="Layer_1" data-name="Layer 1" xmlns="http://www.w3.org/2000/svg" viewBox="0 0 776.7 776.7">
  <defs>
    <style>
      .cls-1 {
        fill: #8c0707;
        stroke-width: 0px;
      }
    </style>
  </defs>
  <path class="cls-1" d="M56.37,267.87c0-46.73.15-93.46-.16-140.18-.05-7.03,2.23-9.91,8.89-11.99,105.04-32.82,209.97-65.97,315.02-98.77,4.81-1.5,10.88-1.66,15.66-.17,105.63,32.96,211.15,66.31,316.77,99.29,6.26,1.95,7.81,4.92,7.81,10.95-.05,87.99.9,175.99-.03,263.97-.9,85-33.65,157.28-92.05,218.45-52.95,55.46-116.77,95.22-185.11,128.41-16.08,7.81-32.54,14.85-49,21.85-2.99,1.27-7.32,1.84-10.16.65-81.91-34.3-159.05-76.31-223.55-138.75-71.42-69.14-107.5-152.6-104.28-252.67,1.08-33.65.17-67.35.17-101.04h.03ZM107.27,287.72s-.06,0-.09,0c0,27.61.79,55.24-.15,82.82-2.93,86.34,28.72,158.04,90.52,217.21,54.09,51.79,118.73,86.6,186.99,115.44,2.19.92,5.45.88,7.65-.04,62.9-26.49,122.75-58.24,174.31-103.7,64.21-56.61,102.86-125.87,103.01-213.45.13-72.51-.22-145.02-.08-217.53.01-6.74-2.45-9.45-8.64-11.38-88.26-27.54-176.43-55.38-264.72-82.83-4.77-1.48-10.81-1.47-15.59.02-87.98,27.38-175.83,55.21-263.83,82.55-7.63,2.37-9.62,6-9.55,13.49.33,39.13.15,78.27.15,117.41Z"/>
  <g>
    <path class="cls-1" d="M447.59,114.27c-8.71-2.62-19.17-5.77-27.9-8.2l-.16-.04c-3.77-1.05-7.5,1.79-7.48,5.7.13,22.97-.07,85.58-.07,91.31-.01,156.88-.03,284-.04,440.88,0,3.4,0,6.81,0,10.21,0,4.14,4.27,6.92,8.04,5.21,18.75-8.54,37.15-17.69,55.05-27.68,2.76-1.54,5.52-3.11,8.26-4.7,1.62-.94,2.61-2.67,2.62-4.54.01-25.79.01-208.05.01-208.05,0-7.25,2.01-9.13,9.95-9.16,8.09-.03,16.17,0,24.26,0,10.17.02,11.71,1.46,11.7,10.95-.03,52.67-.06,105.33-.07,157.99,0,3.6-.03,7.2-.03,10.79,0,4.44,5.08,7,8.62,4.31,8.99-6.82,17.77-13.98,26.33-21.52,5.15-4.53,10.14-9.16,14.95-13.87,8.13-7.95,15.77-16.12,22.89-24.57.86-1.02,1.32-2.31,1.32-3.64.01-84.48.01-168.95.01-253.42,0-25.6-.22-21.43.21-47.03.07-3.95,2.28-8.62,5.18-11.62,3.22-3.33,26.49-19.27,41.58-29.65,3.8-2.61,2.86-8.46-1.56-9.75-36.19-10.56-152.09-44.41-203.65-59.91ZM531.82,271.8c0,25.06.01,50.11-.01,75.15,0,8.25-1.86,9.85-11.1,9.83-8.09-.01-16.17.03-24.26,0-8.31-.03-10.53-1.97-10.55-9.32-.04-50.66-.09-114.01-.1-164.66-.01-6.47,2.38-4.88,10.35-2.64,8.65,2.43,16.76,4.93,27.11,8.08,7.06,2.15,8.68,1.7,8.67,8.77-.06,15.54-.1,30.18-.13,45.73-.01,9.68,0,19.38,0,29.06h.03Z"/>
    <path class="cls-1" d="M366,179.85c.02-25.93.06-51.01.1-71.45,0-3.56-3.42-6.11-6.82-5.09-21.08,6.32-42.15,12.66-63.22,19.01-2.23.67-3.76,2.72-3.76,5.05-.05,21.82-.13,49.09-.18,68.09-.03,1.67-.05,3.34-.05,5.01,0,7.08,0,13.51,0,19.5,0,15.03,0,27.08,0,38.14,0,16.84-.04,33.66-.17,57.96-.03,3.31-1.55,7.71-4.16,9.74-10.99,8.55-22.57,16.47-34.12,24.4-3.82,2.63-6.47,1.37-6.95-2.89-.19-1.82-.09-3.65-.09-5.49-.04-62.89-.15-133.6-.03-196.49.01-5.43-2.7-8.75-7.88-7.16-31.29,9.63-90.73,27.33-114.75,34.47-4.24,1.26-5.16,6.84-1.55,9.39,13.83,9.8,30.23,21.49,42.73,29.96,5.47,3.71,7.38,8.32,7.38,14.14-.04,110.27-.04,191.12-.04,301.03,0,1.28.45,2.52,1.28,3.5,7.01,8.24,14.57,16.27,22.64,24.07l1.34,1.3c12.87,12.32,26.34,23.68,40.31,34.23,3.49,2.63,8.49.13,8.5-4.24.08-53.02.05-106.04.03-159.06,0-3.83-.42-7.68-.15-11.5.1-1.61,1.1-3.83,2.46-4.51,1.1-.55,3.67.42,5.04,1.34,6.95,4.7,13.71,9.62,20.54,14.45,21.7,15.42,17.65,10.22,17.69,32.36.12,54.6.08,109.23-.04,163.83,0,1.9,1.01,3.67,2.66,4.61,2.67,1.53,5.36,3.05,8.06,4.55,18.12,10.05,36.74,19.28,55.73,27.91,3.51,1.6,7.5-1,7.48-4.86-.01-2.01-.02-4.02-.02-6.03,0-58.68.04-117.38.06-176.08,0-9.31-.04-18.62-.13-27.93-.03-4.22-1.63-7.49-5.62-10.26-23.02-15.99-45.77-32.27-68.66-48.38-5.94-4.19-5.95-6.23-.21-10.29,22.09-15.59,43.99-31.42,66.23-46.83,6.29-4.34,8.52-9.35,8.49-16.38-.21-53.75-.16-77.73,0-131.47,0-.62-.06-1.16-.15-1.66Z"/>
  </g>
</svg>